<svg xmlns="http://www.w3.org/2000/svg" width="15.108" height="14.007" viewBox="0 0 15.108 14.007">
  <path id="Star_Icon" data-name="Star Icon" d="M1104.348,815.145a1.011,1.011,0,0,0,.964.679h3.97a.688.688,0,0,1,.419,1.25l-3.212,2.265a.968.968,0,0,0-.369,1.1l1.227,3.663a.708.708,0,0,1-1.1.774l-3.212-2.265a1.043,1.043,0,0,0-1.192,0l-3.212,2.265a.708.708,0,0,1-1.1-.774l1.227-3.663a.968.968,0,0,0-.369-1.1l-3.212-2.265a.688.688,0,0,1,.419-1.25h3.97a1.01,1.01,0,0,0,.964-.679l1.227-3.663a.72.72,0,0,1,1.356,0Z" transform="translate(-1094.89 -811.004)" fill="#f5ad0d"/>
</svg>
